<svg xmlns="http://www.w3.org/2000/svg" viewBox="0 0 32 32" shape-rendering="crispEdges">
  <rect width="32" height="32" rx="4" fill="#0f0f1a"/>
  <g fill="#00ffa3">
    <rect x="8" y="6" width="4" height="2"/>
    <rect x="14" y="6" width="4" height="2"/>
    <rect x="20" y="6" width="4" height="2"/>
    <rect x="6" y="8" width="20" height="2"/>
    <rect x="4" y="10" width="24" height="12"/>
    <rect x="6" y="22" width="20" height="2"/>
    <rect x="8" y="24" width="4" height="2"/>
    <rect x="14" y="24" width="4" height="2"/>
    <rect x="20" y="24" width="4" height="2"/>
  </g>
  <rect x="15" y="8" width="2" height="18" fill="#0f0f1a"/>
  <g fill="#0f0f1a">
    <rect x="8" y="12" width="2" height="2"/>
    <rect x="22" y="12" width="2" height="2"/>
    <rect x="8" y="18" width="2" height="2"/>
    <rect x="22" y="18" width="2" height="2"/>
    <rect x="12" y="14" width="2" height="2"/>
    <rect x="18" y="14" width="2" height="2"/>
    <rect x="12" y="18" width="2" height="2"/>
    <rect x="18" y="18" width="2" height="2"/>
  </g>
</svg>
